<svg id="Layer_1" data-name="Layer 1" xmlns="http://www.w3.org/2000/svg" viewBox="0 0 973.55 942"><defs><style>.cls-1{fill:#f15a24;}</style></defs><title>upload</title><path class="cls-1" d="M227.55,800.82h66.72c0,30.13,1.1,58.37-.37,86.5-1,19.81,4.91,27.75,28.61,27.55,109.81-1,219.63-.2,329.45-.36,40.81-.06,64.69-13.66,71.47-50.32,8-43.11,9.74-87.36,11.37-131.2,1.3-34.93,8.24-42.65,46.5-44.61,42.85-2.19,86.2-3,128.23-9.94,47.85-7.91,65.56-28.87,65.72-70.74.65-167.59.37-335.19.34-502.78,0-2.83-1.08-5.67-2.14-10.93H295.36c-.34,56.45,11.44,120.23-67.27,151.24,0-61.2-.55-122.46.35-183.71.26-17.85,11.62-29,32.92-29.06,14,0,28-.44,42-.44q342.39,0,684.78,0c47.56,0,52.75,4.67,52.77,46.59.08,170.54-1.19,341.09.66,511.62.73,67.56-20,123.82-74.44,171.46C901.17,819.39,838.93,880.54,774.5,939.64c-26.22,24.06-59.06,34.41-96.34,34.36-133.5-.2-267,0-400.51-.1-40,0-49.87-8.88-50.05-44.57C227.38,886.5,227.55,843.66,227.55,800.82Z" transform="translate(-68 -32)"/><path class="cls-1" d="M509.69,515.15c0,64.95,0,126.47,0,188,0,37.18-5.56,42.06-46.95,42-65.7,0-131.4.15-197.1-.14-36-.16-43.62-7.19-43.73-39.76-.2-61.69-.06-123.39-.06-190.11-38,0-74.18,1.64-110.07-.78-14.95-1-29.2-10.65-43.76-16.36,6.22-12.39,9.37-27.48,19.15-36.76,82-77.79,165.11-154.58,248.06-231.52,26.84-24.89,36.7-25.11,63.63-.21,83.85,77.52,167.79,155,250.36,233.6,9.43,9,16.44,26.73,13.25,37.68-2.12,7.29-24.17,13-37.65,13.7C588.38,516.37,551.75,515.15,509.69,515.15Z" transform="translate(-68 -32)"/></svg>